<svg width="85" height="85" viewBox="0 0 85 85" fill="none" xmlns="http://www.w3.org/2000/svg">
<circle cx="42.2395" cy="42.2394" r="29.1853" transform="rotate(-140.381 42.2395 42.2394)" stroke="#E8E3DF" stroke-width="1.62942"/>
<mask id="path-2-inside-1_619_1591" fill="white">
<path d="M32.7997 41.5813L39.4983 35.0359C39.6788 34.8656 39.9202 34.7717 40.1704 34.7745C40.4207 34.7773 40.6599 34.8765 40.8364 35.0508C41.013 35.225 41.1127 35.4604 41.1143 35.7062C41.1158 35.952 41.019 36.1886 40.8447 36.365L35.7796 41.3143L52.5663 41.3571C52.8195 41.3578 53.062 41.4572 53.2406 41.6334C53.4192 41.8097 53.5191 42.0484 53.5185 42.297C53.5178 42.5457 53.4167 42.7839 53.2372 42.9592C53.0577 43.1346 52.8147 43.2328 52.5615 43.2321L35.7748 43.1892L40.8146 48.1643C40.9055 48.251 40.978 48.3547 41.0277 48.4692C41.0774 48.5837 41.1035 48.7068 41.1042 48.8312C41.105 48.9557 41.0806 49.0791 41.0323 49.1942C40.984 49.3093 40.9128 49.4138 40.823 49.5016C40.7331 49.5894 40.6264 49.6587 40.5089 49.7056C40.3915 49.7524 40.2658 49.7758 40.139 49.7744C40.0123 49.773 39.8871 49.7468 39.7707 49.6974C39.6544 49.6479 39.5493 49.5763 39.4614 49.4865L32.7963 42.907C32.6178 42.7307 32.5179 42.492 32.5185 42.2434C32.5192 41.9948 32.6203 41.7567 32.7997 41.5813Z"/>
</mask>
<path d="M32.7997 41.5813L39.4983 35.0359C39.6788 34.8656 39.9202 34.7717 40.1704 34.7745C40.4207 34.7773 40.6599 34.8765 40.8364 35.0508C41.013 35.225 41.1127 35.4604 41.1143 35.7062C41.1158 35.952 41.019 36.1886 40.8447 36.365L35.7796 41.3143L52.5663 41.3571C52.8195 41.3578 53.062 41.4572 53.2406 41.6334C53.4192 41.8097 53.5191 42.0484 53.5185 42.297C53.5178 42.5457 53.4167 42.7839 53.2372 42.9592C53.0577 43.1346 52.8147 43.2328 52.5615 43.2321L35.7748 43.1892L40.8146 48.1643C40.9055 48.251 40.978 48.3547 41.0277 48.4692C41.0774 48.5837 41.1035 48.7068 41.1042 48.8312C41.105 48.9557 41.0806 49.0791 41.0323 49.1942C40.984 49.3093 40.9128 49.4138 40.823 49.5016C40.7331 49.5894 40.6264 49.6587 40.5089 49.7056C40.3915 49.7524 40.2658 49.7758 40.139 49.7744C40.0123 49.773 39.8871 49.7468 39.7707 49.6974C39.6544 49.6479 39.5493 49.5763 39.4614 49.4865L32.7963 42.907C32.6178 42.7307 32.5179 42.492 32.5185 42.2434C32.5192 41.9948 32.6203 41.7567 32.7997 41.5813Z" fill="#E8E3DF"/>
<path d="M32.7997 41.5813L8.50214 16.7226L8.50589 16.7189L32.7997 41.5813ZM39.4983 35.0359L15.2045 10.1735L15.4205 9.96247L15.64 9.75525L39.4983 35.0359ZM40.8447 36.365L65.567 60.8014L65.3546 61.0163L65.1385 61.2274L40.8447 36.365ZM35.7796 41.3143L35.6908 76.0752L-49.311 75.8582L11.4858 16.4518L35.7796 41.3143ZM53.5185 42.297L88.2794 42.3858L53.5185 42.297ZM35.7748 43.1892L11.3543 67.9273L-49.1383 8.21127L35.8635 8.42831L35.7748 43.1892ZM40.8146 48.1643L16.8275 73.3228L16.609 73.1145L16.3941 72.9024L40.8146 48.1643ZM39.4614 49.4865L63.8819 24.7484L64.0969 24.9607L64.3082 25.1766L39.4614 49.4865ZM32.7963 42.907L8.37586 67.645L8.37213 67.6413L32.7963 42.907ZM8.50589 16.7189L15.2045 10.1735L63.7922 59.8984L57.0935 66.4438L8.50589 16.7189ZM15.64 9.75525C22.4322 3.34524 31.3888 -0.0860563 40.5558 0.0155859L39.785 69.5334C48.4515 69.6295 56.9254 66.386 63.3566 60.3166L15.64 9.75525ZM40.5558 0.0155859C49.7232 0.117233 58.6057 3.74688 65.2569 10.3127L16.4159 59.7888C22.7141 66.0061 31.1182 69.4373 39.785 69.5334L40.5558 0.0155859ZM65.2569 10.3127C71.9284 16.8985 75.8145 25.9263 75.8746 35.4874L6.35393 35.925C6.41101 44.9945 10.0975 53.5515 16.4159 59.7888L65.2569 10.3127ZM75.8746 35.4874C75.9348 45.0491 72.162 54.1293 65.567 60.8014L16.1224 11.9285C9.87605 18.248 6.29684 26.8549 6.35393 35.925L75.8746 35.4874ZM65.1385 61.2274L60.0734 66.1767L11.4858 16.4518L16.5509 11.5025L65.1385 61.2274ZM35.8683 6.55332L52.6551 6.59618L52.4776 76.1181L35.6908 76.0752L35.8683 6.55332ZM52.6551 6.59618C61.9272 6.61985 70.9339 10.2545 77.6611 16.8954L28.8201 66.3715C35.1902 72.6598 43.7117 76.0957 52.4776 76.1181L52.6551 6.59618ZM77.6611 16.8954C84.4095 23.5571 88.3041 32.7137 88.2794 42.3858L18.7575 42.2083C18.7341 51.3831 22.4288 60.0622 28.8201 66.3715L77.6611 16.8954ZM88.2794 42.3858C88.2547 52.0579 84.3134 61.1945 77.531 67.8217L28.9434 18.0968C22.52 24.3733 18.781 33.0335 18.7575 42.2083L88.2794 42.3858ZM77.531 67.8217C70.77 74.4281 61.7449 78.0167 52.4728 77.993L52.6503 8.47117C43.8845 8.44879 35.3455 11.8411 28.9434 18.0968L77.531 67.8217ZM52.4728 77.993L35.686 77.9502L35.8635 8.42831L52.6503 8.47117L52.4728 77.993ZM60.1953 18.4512L65.235 23.4263L16.3941 72.9024L11.3543 67.9273L60.1953 18.4512ZM64.8016 23.0058C68.231 26.2755 70.9987 30.2179 72.9111 34.6208L9.14427 62.3176C10.9572 66.4915 13.58 70.2265 16.8275 73.3228L64.8016 23.0058ZM72.9111 34.6208C74.8241 39.0252 75.8342 43.7834 75.8646 48.6125L6.34388 49.05C6.3727 53.6301 7.33072 58.1422 9.14427 62.3176L72.9111 34.6208ZM75.8646 48.6125C75.895 53.4417 74.9448 58.2134 73.0862 62.6432L8.97833 35.7452C7.21628 39.9448 6.31504 44.4698 6.34388 49.05L75.8646 48.6125ZM73.0862 62.6432C71.2281 67.0717 68.5081 71.0503 65.1168 74.364L16.5292 24.6392C13.3176 27.7773 10.7398 31.5469 8.97833 35.7452L73.0862 62.6432ZM65.1168 74.364C61.7271 77.6762 57.7342 80.2592 53.3871 81.9931L27.6307 17.4181C23.5185 19.0583 19.7392 21.5026 16.5292 24.6392L65.1168 74.364ZM53.3871 81.9931C49.0413 83.7265 44.4086 84.5849 39.7536 84.5333L40.5244 15.0155C36.1229 14.9667 31.7417 15.7784 27.6307 17.4181L53.3871 81.9931ZM39.7536 84.5333C35.0984 84.4817 30.4848 83.5206 26.1769 81.6902L53.3646 17.7046C49.2894 15.973 44.9261 15.0643 40.5244 15.0155L39.7536 84.5333ZM26.1769 81.6902C21.8679 79.8592 17.9314 77.1863 14.6147 73.7964L64.3082 25.1766C61.1671 21.9662 57.441 19.4367 53.3646 17.7046L26.1769 81.6902ZM15.041 74.2245L8.37586 67.645L57.2168 18.1689L63.8819 24.7484L15.041 74.2245ZM8.37213 67.6413C1.62597 60.9798 -2.26708 51.8248 -2.24239 42.1547L67.2795 42.3322C67.3029 33.1592 63.6097 24.4816 57.2205 18.1726L8.37213 67.6413ZM-2.24239 42.1547C-2.2177 32.4846 1.72205 23.3496 8.50214 16.7226L57.0973 66.4401C63.5186 60.1638 67.2561 51.5051 67.2795 42.3322L-2.24239 42.1547Z" fill="#E8E3DF" mask="url(#path-2-inside-1_619_1591)"/>
</svg>
