<svg width="86" height="85" viewBox="0 0 86 85" fill="none" xmlns="http://www.w3.org/2000/svg">
<circle cx="42.9999" cy="42.3887" r="29.1853" transform="rotate(42.5827 42.9999 42.3887)" stroke="#636363" stroke-width="1.62942"/>
<path d="M52.3932 43.534L45.3651 49.7242C45.1761 49.885 44.9302 49.9663 44.6804 49.9506C44.4306 49.9348 44.1969 49.8234 44.0296 49.6402C43.8623 49.4571 43.7748 49.2168 43.786 48.9713C43.7972 48.7257 43.9061 48.4945 44.0893 48.3273L49.4036 43.6466L32.6415 42.7358C32.3887 42.722 32.1516 42.6102 31.9824 42.425C31.8132 42.2397 31.7257 41.9961 31.7392 41.7479C31.7527 41.4996 31.866 41.2669 32.0543 41.1011C32.2426 40.9353 32.4904 40.8498 32.7432 40.8635L49.5053 41.7744L44.7295 36.5453C44.6432 36.454 44.5762 36.3468 44.5324 36.2299C44.4887 36.1129 44.469 35.9887 44.4747 35.8643C44.4804 35.74 44.5112 35.618 44.5653 35.5056C44.6195 35.3931 44.696 35.2925 44.7902 35.2094C44.8845 35.1264 44.9947 35.0627 45.1144 35.022C45.2341 34.9813 45.3609 34.9644 45.4874 34.9723C45.6139 34.9803 45.7376 35.0129 45.8512 35.0683C45.9648 35.1237 46.0661 35.2007 46.1492 35.2949L52.4652 42.2103C52.6343 42.3955 52.7218 42.6391 52.7083 42.8873C52.6948 43.1355 52.5815 43.3681 52.3932 43.534Z" fill="#636363"/>
</svg>
