<svg width="100" height="121" viewBox="0 0 100 121" fill="none" xmlns="http://www.w3.org/2000/svg">
<path d="M64.8002 27.2008C60.0002 23.1352 53.9002 21.1992 47.5002 21.8768C37.5002 22.9416 29.3002 30.7824 28.0002 40.3656C27.2002 46.0768 28.8002 51.6912 32.5002 56.2408C35.6002 60.016 37.3002 64.9528 37.5002 70.0832C37.0002 70.4704 36.7002 71.0512 36.7002 71.632C36.7002 72.6968 37.6002 73.568 38.7002 73.568H61.5002C62.6002 73.568 63.5002 72.6968 63.5002 71.632C63.5002 70.9544 63.2002 70.4704 62.7002 70.0832C62.9002 65.0496 64.7002 60.1128 68.0002 55.7568C70.8002 52.0784 72.3002 47.7224 72.3002 43.076C72.2002 37.1712 69.5002 31.2664 64.8002 27.2008ZM64.7002 53.6272C60.9002 58.564 58.9002 64.1784 58.6002 69.8896H52.0002V53.0464H55.5002C56.6002 53.0464 57.5002 52.1752 57.5002 51.1104C57.5002 50.0456 56.6002 49.1744 55.5002 49.1744H44.4002C43.3002 49.1744 42.4002 50.0456 42.4002 51.1104C42.4002 52.1752 43.3002 53.0464 44.4002 53.0464H48.0002V69.8896H41.4002C41.2002 63.9848 39.1002 58.4672 35.6002 54.0144C32.6002 50.336 31.3002 45.6896 31.9002 40.9464C33.0002 33.0088 39.7002 26.7168 47.8002 25.7488C53.1002 25.168 58.1002 26.7168 62.0002 30.1048C65.9002 33.396 68.1002 38.236 68.1002 43.2696C68.2002 47.0448 67.0002 50.6264 64.7002 53.6272Z" fill="white"/>
<path d="M48 5.324V14.8104C48 15.8752 48.9 16.7464 50 16.7464C51.1 16.7464 52 15.8752 52 14.8104V5.324C52 4.2592 51.1 3.388 50 3.388C48.9 3.388 48 4.2592 48 5.324Z" fill="white"/>
<path d="M84.5 21.9736C83.9 21.1024 82.6 20.812 81.7 21.3928L74 26.4264C73.1 27.0072 72.8 28.2656 73.4 29.1368C73.8 29.7176 74.4 30.008 75.1 30.008C75.5 30.008 75.9 29.9112 76.2 29.7176L83.9 24.7808C84.8 24.1032 85.1 22.8448 84.5 21.9736Z" fill="white"/>
<path d="M26.5 29.04C27.1 28.1688 26.9 26.9104 25.9 26.3296L18.2 21.3928C17.3 20.812 16 21.0056 15.4 21.9736C14.8 22.8448 15 24.1032 16 24.684L23.7 29.6208C24 29.8144 24.4 29.9112 24.8 29.9112C25.5 29.9112 26.2 29.6208 26.5 29.04Z" fill="white"/>
<path d="M61.3996 81.5056C61.3996 80.4408 60.4996 79.5696 59.3996 79.5696H40.5996C39.4996 79.5696 38.5996 80.4408 38.5996 81.5056C38.5996 82.5704 39.4996 83.4416 40.5996 83.4416H59.3996C60.4996 83.4416 61.3996 82.6672 61.3996 81.5056Z" fill="white"/>
<path d="M58.2992 91.476C58.2992 90.4112 57.3992 89.54 56.2992 89.54H43.6992C42.5992 89.54 41.6992 90.4112 41.6992 91.476C41.6992 92.5408 42.5992 93.412 43.6992 93.412H56.2992C57.3992 93.412 58.2992 92.5408 58.2992 91.476Z" fill="white"/>
</svg>
