<svg width="86" height="108" viewBox="0 0 86 108" fill="none" xmlns="http://www.w3.org/2000/svg">
<g clip-path="url(#clip0_857_33)">
<path d="M51.2052 16.956L66.6135 32.4H28.666C22.9639 32.4 17.4953 34.6757 13.4632 38.7265C9.43119 42.7773 7.16602 48.2713 7.16602 54C7.16602 59.7287 9.43119 65.2227 13.4632 69.2735C17.4953 73.3243 22.9639 75.6 28.666 75.6H42.9994V68.4H28.666C24.8646 68.4 21.2188 66.8829 18.5308 64.1823C15.8428 61.4818 14.3327 57.8191 14.3327 54C14.3327 50.1809 15.8428 46.5182 18.5308 43.8177C21.2188 41.1171 24.8646 39.6 28.666 39.6H66.6135L51.241 55.044L56.2935 60.12L80.3019 36L56.2935 11.844L51.2052 16.956Z" fill="white"/>
</g>
<defs>
<clipPath id="clip0_857_33">
<rect width="86" height="108" fill="white"/>
</clipPath>
</defs>
</svg>
