<svg width="46" height="46" viewBox="0 0 46 46" fill="none" xmlns="http://www.w3.org/2000/svg">
<circle cx="23.0294" cy="22.7668" r="22.7668" fill="#F88837"/>
<path d="M28.8661 18.5833L28.1177 25.6512C28.0947 25.8381 27.999 26.0098 27.8513 26.1293C27.7037 26.2488 27.5159 26.3066 27.3283 26.2901C27.1408 26.2737 26.9686 26.1843 26.8487 26.0414C26.7288 25.8985 26.671 25.7133 26.6875 25.5258L27.2534 20.1815L17.4195 28.28C17.2712 28.4021 17.0813 28.4614 16.8916 28.4447C16.7019 28.4281 16.5279 28.3369 16.408 28.1913C16.288 28.0456 16.2319 27.8574 16.252 27.6681C16.272 27.4787 16.3666 27.3037 16.5149 27.1816L26.3488 19.0831L20.9951 18.6136C20.9 18.6069 20.8075 18.5814 20.723 18.5386C20.6385 18.4957 20.5637 18.4363 20.503 18.3639C20.4423 18.2915 20.3969 18.2076 20.3694 18.1169C20.342 18.0263 20.333 17.9308 20.343 17.836C20.3531 17.7411 20.3819 17.649 20.4279 17.5647C20.4739 17.4805 20.5361 17.406 20.6109 17.3455C20.6856 17.285 20.7715 17.2397 20.8634 17.2123C20.9553 17.1849 21.0515 17.1759 21.1463 17.1859L28.2266 17.8067C28.4162 17.8234 28.5901 17.9145 28.7101 18.0602C28.83 18.2058 28.8861 18.394 28.8661 18.5833Z" fill="white"/>
</svg>
