<svg width="100" height="125" viewBox="0 0 100 125" fill="none" xmlns="http://www.w3.org/2000/svg">
<g clip-path="url(#clip0_857_38)">
<path d="M15.4004 70.9C17.3004 70.9 18.9004 69.3 18.9004 67.4V31.3C18.9004 23.9 24.9004 17.9 32.3004 17.9H68.0004V22.7C68.0004 24.1 68.7004 25.3 69.9004 25.9C70.5004 26.2 71.1004 26.4 71.7004 26.4C72.4004 26.4 73.1004 26.2 73.7004 25.8L86.6004 17.5C87.7004 16.8 88.3004 15.7 88.3004 14.4C88.3004 13.1 87.7004 12 86.6004 11.3L73.6004 3.10001C72.5004 2.40001 71.0004 2.30001 69.8004 3.00001C68.6004 3.60001 67.9004 4.90001 67.9004 6.20001V11H32.3004C21.0004 11 11.9004 20.1 11.9004 31.3V67.4C11.9004 69.4 13.4004 70.9 15.4004 70.9Z" fill="white"/>
<path d="M84.6008 29.1C82.7008 29.1 81.1008 30.7 81.1008 32.6V68.7C81.1008 76.1 75.1008 82.1 67.7008 82.1H32.1008V77.3C32.1008 75.9 31.4008 74.7 30.2008 74.1C29.0008 73.5 27.6008 73.5 26.4008 74.2L13.5008 82.5C12.4008 83.2 11.8008 84.3 11.8008 85.6C11.8008 86.9 12.4008 88 13.5008 88.7L26.4008 97C27.0008 97.4 27.7008 97.6 28.4008 97.6C29.0008 97.6 29.6008 97.4 30.2008 97.1C31.4008 96.5 32.1008 95.2 32.1008 93.9V89H67.8008C79.0008 89 88.2008 79.9 88.2008 68.6V32.6C88.1008 30.6 86.6008 29.1 84.6008 29.1Z" fill="white"/>
<path d="M65.7 54.9L71.4 54.3C72.3 54.2 73 53.4 73 52.5V47.5C73 46.6 72.3 45.8 71.4 45.7L65.7 45.1C65.5 45.1 65.3 44.9 65.3 44.7C65.1 44.1 64.8 43.4 64.5 42.8C64.4 42.6 64.4 42.4 64.6 42.2L68.3 37.7C68.9 37 68.8 35.9 68.2 35.3L64.7 31.8C64 31.1 63 31.1 62.3 31.7L57.8 35.3C57.6 35.4 57.4 35.5 57.2 35.4C56.6 35.1 56 34.8 55.3 34.6C55.1 34.5 55 34.4 54.9 34.2L54.3 28.5C54.2 27.6 53.4 26.9 52.5 26.9H47.5C46.6 26.9 45.8 27.6 45.7 28.5L45.1 34.2C45.1 34.4 44.9 34.6 44.7 34.6C44.1 34.8 43.4 35.1 42.8 35.4C42.6 35.5 42.4 35.5 42.2 35.3L37.7 31.7C37 31.1 35.9 31.2 35.3 31.8L31.8 35.3C31.1 36 31.1 37 31.7 37.7L35.4 42.2C35.5 42.4 35.6 42.6 35.5 42.8C35.2 43.4 34.9 44 34.7 44.7C34.6 44.9 34.5 45 34.3 45.1L28.6 45.7C27.7 45.8 27 46.6 27 47.5V52.5C27 53.4 27.7 54.2 28.6 54.3L34.3 54.9C34.5 54.9 34.7 55.1 34.7 55.3C34.9 55.9 35.2 56.6 35.5 57.2C35.6 57.4 35.6 57.6 35.4 57.8L31.7 62.3C31.1 63 31.2 64.1 31.8 64.7L35.3 68.2C36 68.9 37 68.9 37.7 68.3L42.2 64.7C42.4 64.6 42.6 64.5 42.8 64.6C43.4 64.9 44 65.2 44.7 65.4C44.9 65.5 45 65.6 45.1 65.8L45.7 71.5C45.8 72.4 46.6 73.1 47.5 73.1H52.5C53.4 73.1 54.2 72.4 54.3 71.5L54.9 65.8C54.9 65.6 55.1 65.4 55.3 65.4C55.9 65.2 56.6 64.9 57.2 64.6C57.4 64.5 57.6 64.5 57.8 64.7L62.3 68.3C63 68.9 64.1 68.8 64.7 68.2L68.2 64.7C68.9 64 68.9 63 68.3 62.3L64.6 57.8C64.5 57.6 64.4 57.4 64.5 57.2C64.8 56.6 65.1 56 65.3 55.3C65.3 55 65.5 54.9 65.7 54.9ZM50 58.9C45.1 58.9 41.1 54.9 41.1 50C41.1 45.1 45.1 41.1 50 41.1C54.9 41.1 58.9 45.1 58.9 50C58.9 54.9 54.9 58.9 50 58.9Z" fill="white"/>
</g>
<defs>
<clipPath id="clip0_857_38">
<rect width="100" height="125" fill="white"/>
</clipPath>
</defs>
</svg>
