<svg width="501" height="64" viewBox="0 0 501 64" fill="none" xmlns="http://www.w3.org/2000/svg">
<path d="M31.5422 26.0649C31.2082 24.9828 30.7473 24.0142 30.1595 23.1592C29.585 22.2908 28.8903 21.5493 28.0754 20.9348C27.2738 20.3202 26.352 19.8593 25.3099 19.552C24.2679 19.2314 23.1323 19.0711 21.9032 19.0711C19.6989 19.0711 17.735 19.6255 16.0116 20.7344C14.2882 21.8432 12.9322 23.4731 11.9436 25.624C10.9683 27.7616 10.4807 30.3667 10.4807 33.4394C10.4807 36.5389 10.9683 39.1641 11.9436 41.315C12.9188 43.4659 14.2748 45.1024 16.0116 46.2247C17.7483 47.3335 19.7657 47.8879 22.0635 47.8879C24.1476 47.8879 25.9512 47.4872 27.4742 46.6856C29.0106 45.884 30.1929 44.7484 31.0212 43.2789C31.8495 41.7959 32.2636 40.0592 32.2636 38.0686L33.947 38.3291H22.805V32.5176H39.4578V37.4473C39.4578 40.9609 38.7097 44.0003 37.2134 46.5653C35.7171 49.1304 33.6597 51.1076 31.0412 52.497C28.4227 53.8731 25.4168 54.5611 22.0234 54.5611C18.2427 54.5611 14.9228 53.7128 12.0638 52.0161C9.21818 50.306 6.9938 47.8813 5.39063 44.7417C3.80083 41.5889 3.00593 37.8481 3.00593 33.5196C3.00593 30.2064 3.47352 27.2472 4.4087 24.6421C5.35723 22.0369 6.67984 19.8259 8.37652 18.009C10.0732 16.1787 12.0638 14.7893 14.3483 13.8408C16.6328 12.8789 19.1177 12.3979 21.803 12.3979C24.0742 12.3979 26.1917 12.7319 28.1555 13.3999C30.1194 14.0545 31.8629 14.9897 33.3859 16.2054C34.9222 17.4212 36.1847 18.864 37.1733 20.534C38.1619 22.2039 38.8099 24.0476 39.1172 26.0649H31.5422ZM47.2113 54V12.959H73.904V19.1913H54.646V30.3333H72.5213V36.5656H54.646V47.7677H74.0643V54H47.2113ZM82.0533 54V12.959H89.4879V47.7677H107.564V54H82.0533ZM121.394 54H113.458L127.907 12.959H137.085L151.554 54H143.618L132.656 21.3756H132.336L121.394 54ZM121.655 37.9083H143.297V43.88H121.655V37.9083ZM126.504 8.43011C125.449 8.43011 124.534 8.05604 123.759 7.30789C122.997 6.55975 122.616 5.67801 122.616 4.66268C122.616 3.5939 122.997 2.6988 123.759 1.97738C124.534 1.2426 125.449 0.875206 126.504 0.875206C127.586 0.875206 128.495 1.2426 129.23 1.97738C129.978 2.6988 130.352 3.5939 130.352 4.66268C130.352 5.67801 129.978 6.55975 129.23 7.30789C128.495 8.05604 127.586 8.43011 126.504 8.43011ZM138.528 8.43011C137.472 8.43011 136.557 8.05604 135.782 7.30789C135.021 6.55975 134.64 5.67801 134.64 4.66268C134.64 3.5939 135.021 2.6988 135.782 1.97738C136.557 1.2426 137.472 0.875206 138.528 0.875206C139.61 0.875206 140.518 1.2426 141.253 1.97738C142.001 2.6988 142.375 3.5939 142.375 4.66268C142.375 5.67801 142.001 6.55975 141.253 7.30789C140.518 8.05604 139.61 8.43011 138.528 8.43011ZM191.25 12.959V54H184.637L165.299 26.0449H164.958V54H157.524V12.959H164.177L183.495 40.9342H183.855V12.959H191.25ZM213.823 54H199.915V12.959H214.103C218.178 12.959 221.678 13.7807 224.604 15.4239C227.543 17.0538 229.801 19.3984 231.377 22.4578C232.954 25.5171 233.742 29.1777 233.742 33.4394C233.742 37.7145 232.947 41.3885 231.357 44.4612C229.781 47.5339 227.503 49.8919 224.524 51.5351C221.558 53.1784 217.991 54 213.823 54ZM207.35 47.5673H213.462C216.321 47.5673 218.706 47.0463 220.616 46.0042C222.527 44.9488 223.963 43.379 224.925 41.2949C225.887 39.1975 226.368 36.579 226.368 33.4394C226.368 30.2999 225.887 27.6948 224.925 25.624C223.963 23.5399 222.54 21.9835 220.656 20.9548C218.786 19.9128 216.461 19.3917 213.683 19.3917H207.35V47.5673ZM241.37 54V12.959H268.063V19.1913H248.805V30.3333H266.68V36.5656H248.805V47.7677H268.223V54H241.37ZM276.212 54V12.959H291.603C294.756 12.959 297.401 13.5068 299.538 14.6023C301.689 15.6978 303.312 17.2341 304.408 19.2114C305.517 21.1752 306.071 23.4664 306.071 26.0849C306.071 28.7168 305.51 31.0013 304.388 32.9385C303.279 34.8622 301.642 36.3519 299.478 37.4073C297.314 38.4493 294.655 38.9704 291.502 38.9704H280.541V32.7982H290.5C292.344 32.7982 293.854 32.5443 295.029 32.0367C296.205 31.5156 297.073 30.7608 297.635 29.7722C298.209 28.7702 298.496 27.5411 298.496 26.0849C298.496 24.6287 298.209 23.3863 297.635 22.3576C297.06 21.3155 296.185 20.5273 295.009 19.9929C293.834 19.4452 292.317 19.1713 290.46 19.1713H283.647V54H276.212ZM297.414 35.4033L307.574 54H299.278L289.298 35.4033H297.414Z" fill="#F88837"/>
<path d="M314.882 54V12.959H338.629V16.3257H318.629V31.7762H336.765V35.1428H318.629V54H314.882ZM343.446 54H339.519L354.448 12.959H358.456L373.385 54H369.458L356.592 17.8286H356.312L343.446 54ZM346.272 38.269H366.632V41.6356H346.272V38.269ZM380.984 54V12.959H394.831C397.503 12.959 399.727 13.4266 401.504 14.3618C403.294 15.297 404.637 16.5728 405.532 18.1894C406.427 19.8059 406.875 21.6428 406.875 23.7002C406.875 25.4103 406.587 26.8732 406.013 28.0889C405.438 29.3046 404.657 30.2866 403.668 31.0347C402.68 31.7828 401.577 32.3239 400.362 32.6579V32.9785C401.684 33.0721 402.967 33.5396 404.209 34.3813C405.452 35.2096 406.474 36.3719 407.275 37.8682C408.077 39.3645 408.478 41.1547 408.478 43.2388C408.478 45.3095 408.017 47.1598 407.095 48.7897C406.173 50.4062 404.757 51.6821 402.847 52.6173C400.95 53.5391 398.531 54 395.592 54H380.984ZM384.731 50.6334H395.592C398.759 50.6334 401.097 49.932 402.606 48.5292C404.129 47.1264 404.891 45.363 404.891 43.2388C404.891 41.6757 404.51 40.2596 403.748 38.9904C403 37.7079 401.938 36.6925 400.562 35.9444C399.199 35.1962 397.596 34.8222 395.753 34.8222H384.731V50.6334ZM384.731 31.4956H395.172C396.788 31.4956 398.204 31.1616 399.42 30.4936C400.636 29.8256 401.584 28.9038 402.266 27.7282C402.947 26.5525 403.288 25.2099 403.288 23.7002C403.288 21.5226 402.579 19.7524 401.163 18.3898C399.747 17.0137 397.636 16.3257 394.831 16.3257H384.731V31.4956ZM418.085 54V12.959H431.331C434.243 12.959 436.675 13.4867 438.625 14.5422C440.589 15.5842 442.066 17.0337 443.054 18.8907C444.056 20.7344 444.557 22.8519 444.557 25.2433C444.557 27.6347 444.056 29.7455 443.054 31.5758C442.066 33.406 440.596 34.8355 438.645 35.8642C436.695 36.8929 434.277 37.4073 431.391 37.4073H420.109V33.9805H431.291C433.429 33.9805 435.205 33.6265 436.621 32.9184C438.051 32.2103 439.113 31.2017 439.808 29.8924C440.516 28.5832 440.87 27.0335 440.87 25.2433C440.87 23.4531 440.516 21.89 439.808 20.554C439.1 19.2047 438.031 18.1626 436.601 17.4279C435.185 16.6931 433.395 16.3257 431.231 16.3257H421.832V54H418.085ZM436.181 35.4835L446.281 54H441.952L431.952 35.4835H436.181ZM457.997 12.959V54H454.249V12.959H457.997ZM469.473 54V12.959H473.22V35.0626H473.581L493.62 12.959H498.55L481.015 31.9365L498.47 54H493.901L478.691 34.5416L473.22 40.6737V54H469.473Z" fill="white"/>
</svg>
