<svg width="240" height="32" viewBox="0 0 240 32" fill="none" xmlns="http://www.w3.org/2000/svg">
<path d="M15.1166 12.7122C14.9565 12.1936 14.7356 11.7294 14.4539 11.3197C14.1786 10.9035 13.8457 10.5481 13.4551 10.2536C13.0709 9.95911 12.6292 9.73822 12.1298 9.59096C11.6303 9.4373 11.0861 9.36046 10.4971 9.36046C9.44065 9.36046 8.49947 9.62617 7.67353 10.1576C6.8476 10.689 6.19773 11.4701 5.72394 12.5009C5.25655 13.5254 5.02285 14.7739 5.02285 16.2465C5.02285 17.7319 5.25655 18.99 5.72394 20.0208C6.19133 21.0516 6.84119 21.836 7.67353 22.3738C8.50587 22.9052 9.47267 23.1709 10.5739 23.1709C11.5727 23.1709 12.4371 22.9788 13.167 22.5947C13.9033 22.2105 14.4699 21.6663 14.8669 20.962C15.2638 20.2513 15.4623 19.419 15.4623 18.465L16.269 18.5898H10.9293V15.8047H18.9101V18.1673C18.9101 19.8511 18.5516 21.3077 17.8345 22.537C17.1174 23.7663 16.1314 24.7139 14.8765 25.3798C13.6216 26.0393 12.181 26.369 10.5547 26.369C8.74277 26.369 7.15172 25.9624 5.78156 25.1493C4.4178 24.3298 3.35177 23.1677 2.58345 21.6631C1.82154 20.1521 1.44059 18.3593 1.44059 16.2849C1.44059 14.697 1.66468 13.2789 2.11286 12.0304C2.56745 10.7818 3.20131 9.72221 4.01444 8.85146C4.82757 7.9743 5.78156 7.30843 6.87641 6.85384C7.97125 6.39285 9.16214 6.16236 10.4491 6.16236C11.5375 6.16236 12.5523 6.32242 13.4935 6.64255C14.4347 6.95628 15.2702 7.40447 16.0001 7.9871C16.7364 8.56974 17.3415 9.26122 17.8153 10.0615C18.2891 10.8619 18.5996 11.7454 18.7469 12.7122H15.1166ZM22.626 26.1001V6.43127H35.4184V9.41809H26.189V14.7579H34.7557V17.7447H26.189V23.1133H35.4952V26.1001H22.626ZM39.3239 26.1001V6.43127H42.887V23.1133H51.5497V26.1001H39.3239ZM58.178 26.1001H54.3748L61.2992 6.43127H65.6978L72.6319 26.1001H68.8287L63.5754 10.4649H63.4217L58.178 26.1001ZM58.3028 18.3881H68.675V21.2501H58.3028V18.3881ZM60.627 4.26078C60.1211 4.26078 59.6826 4.08151 59.3112 3.72296C58.9463 3.36442 58.7638 2.94184 58.7638 2.45524C58.7638 1.94304 58.9463 1.51406 59.3112 1.16832C59.6826 0.816177 60.1211 0.640105 60.627 0.640105C61.1456 0.640105 61.5809 0.816177 61.9331 1.16832C62.2916 1.51406 62.4709 1.94304 62.4709 2.45524C62.4709 2.94184 62.2916 3.36442 61.9331 3.72296C61.5809 4.08151 61.1456 4.26078 60.627 4.26078ZM66.3893 4.26078C65.8835 4.26078 65.4449 4.08151 65.0736 3.72296C64.7086 3.36442 64.5261 2.94184 64.5261 2.45524C64.5261 1.94304 64.7086 1.51406 65.0736 1.16832C65.4449 0.816177 65.8835 0.640105 66.3893 0.640105C66.9079 0.640105 67.3433 0.816177 67.6954 1.16832C68.054 1.51406 68.2333 1.94304 68.2333 2.45524C68.2333 2.94184 68.054 3.36442 67.6954 3.72296C67.3433 4.08151 66.9079 4.26078 66.3893 4.26078ZM91.6564 6.43127V26.1001H88.4871L79.2193 12.7026H79.056V26.1001H75.493V6.43127H78.6815L87.9396 19.8383H88.1125V6.43127H91.6564ZM102.474 26.1001H95.8092V6.43127H102.609C104.562 6.43127 106.239 6.82503 107.641 7.61255C109.05 8.39367 110.132 9.51733 110.887 10.9835C111.643 12.4497 112.021 14.204 112.021 16.2465C112.021 18.2953 111.64 20.056 110.878 21.5286C110.122 23.0012 109.031 24.1313 107.603 24.9188C106.181 25.7063 104.472 26.1001 102.474 26.1001ZM99.3722 23.0172H102.301C103.672 23.0172 104.814 22.7675 105.73 22.2681C106.646 21.7623 107.334 21.01 107.795 20.0112C108.256 19.006 108.486 17.7511 108.486 16.2465C108.486 14.7419 108.256 13.4934 107.795 12.5009C107.334 11.5021 106.652 10.7562 105.749 10.2632C104.853 9.76383 103.739 9.51413 102.407 9.51413H99.3722V23.0172ZM115.676 26.1001V6.43127H128.469V9.41809H119.239V14.7579H127.806V17.7447H119.239V23.1133H128.546V26.1001H115.676ZM132.374 26.1001V6.43127H139.75C141.261 6.43127 142.529 6.69378 143.553 7.21879C144.584 7.7438 145.362 8.4801 145.887 9.42769C146.419 10.3689 146.684 11.4669 146.684 12.7218C146.684 13.9832 146.415 15.078 145.877 16.0064C145.346 16.9284 144.562 17.6422 143.525 18.1481C142.487 18.6475 141.213 18.8972 139.702 18.8972H134.449V15.9391H139.222C140.106 15.9391 140.829 15.8175 141.392 15.5742C141.956 15.3245 142.372 14.9628 142.641 14.489C142.916 14.0088 143.054 13.4197 143.054 12.7218C143.054 12.024 142.916 11.4285 142.641 10.9355C142.366 10.4361 141.946 10.0583 141.383 9.80224C140.819 9.53974 140.093 9.40848 139.203 9.40848H135.937V26.1001H132.374ZM142.535 17.1877L147.405 26.1001H143.428L138.646 17.1877H142.535Z" fill="#F88837"/>
<path d="M150.907 26.1001V6.43127H162.287V8.04473H152.703V15.4493H161.394V17.0628H152.703V26.1001H150.907ZM164.596 26.1001H162.714L169.869 6.43127H171.79L178.944 26.1001H177.062L170.896 8.76502H170.762L164.596 26.1001ZM165.95 18.561H175.708V20.1745H165.95V18.561ZM182.586 26.1001V6.43127H189.222C190.503 6.43127 191.569 6.65536 192.42 7.10354C193.278 7.55173 193.922 8.16318 194.351 8.93789C194.78 9.71261 194.994 10.593 194.994 11.579C194.994 12.3985 194.856 13.0996 194.581 13.6822C194.306 14.2649 193.931 14.7355 193.458 15.094C192.984 15.4526 192.456 15.7119 191.873 15.8719V16.0256C192.507 16.0704 193.121 16.2945 193.717 16.6979C194.312 17.0948 194.802 17.6518 195.186 18.3689C195.57 19.086 195.762 19.944 195.762 20.9428C195.762 21.9352 195.542 22.822 195.1 23.6031C194.658 24.3778 193.979 24.9892 193.064 25.4374C192.155 25.8792 190.996 26.1001 189.587 26.1001H182.586ZM184.382 24.4866H189.587C191.105 24.4866 192.225 24.1505 192.949 23.4782C193.678 22.806 194.043 21.9608 194.043 20.9428C194.043 20.1937 193.861 19.515 193.496 18.9068C193.137 18.2921 192.628 17.8055 191.969 17.447C191.316 17.0884 190.548 16.9091 189.664 16.9091H184.382V24.4866ZM184.382 15.3149H189.385C190.16 15.3149 190.839 15.1548 191.421 14.8347C192.004 14.5146 192.459 14.0728 192.785 13.5094C193.112 12.9459 193.275 12.3025 193.275 11.579C193.275 10.5353 192.936 9.687 192.257 9.03393C191.578 8.37446 190.567 8.04473 189.222 8.04473H184.382V15.3149ZM200.367 26.1001V6.43127H206.715C208.111 6.43127 209.276 6.68417 210.211 7.18998C211.152 7.68938 211.859 8.38406 212.333 9.27403C212.813 10.1576 213.053 11.1724 213.053 12.3185C213.053 13.4645 212.813 14.4762 212.333 15.3533C211.859 16.2305 211.155 16.9155 210.22 17.4085C209.286 17.9016 208.127 18.1481 206.744 18.1481H201.337V16.5058H206.696C207.72 16.5058 208.572 16.3361 209.25 15.9968C209.935 15.6574 210.444 15.174 210.777 14.5466C211.117 13.9191 211.286 13.1764 211.286 12.3185C211.286 11.4605 211.117 10.7114 210.777 10.0712C210.438 9.42449 209.926 8.92509 209.241 8.57294C208.562 8.2208 207.704 8.04473 206.667 8.04473H202.163V26.1001H200.367ZM209.039 17.2261L213.879 26.1001H211.805L207.013 17.2261H209.039ZM219.494 6.43127V26.1001H217.698V6.43127H219.494ZM224.994 26.1001V6.43127H226.79V17.0244H226.963L236.567 6.43127H238.929L230.526 15.5262L238.891 26.1001H236.701L229.412 16.7747L226.79 19.7135V26.1001H224.994Z" fill="#252525"/>
</svg>
