<svg width="100" height="125" viewBox="0 0 100 125" fill="none" xmlns="http://www.w3.org/2000/svg">
<g clip-path="url(#clip0_857_16)">
<path d="M84.5 59.6V64.9C84.5 66.8 86.1 68.4 88 68.4C89.9 68.4 91.5 66.8 91.5 64.9V59.6C91.5 51.9 85.2 45.6 77.5 45.6H53.5V34.3H56.5C60.4 34.3 63.5 31.2 63.5 27.3V14.5C63.5 10.6 60.4 7.5 56.5 7.5H43.6C39.7 7.5 36.6 10.6 36.6 14.5V27.4C36.6 31.3 39.7 34.4 43.6 34.4H46.5V45.6H22.5C14.8 45.6 8.5 51.9 8.5 59.6V64.9C8.5 66.8 10.1 68.4 12 68.4C13.9 68.4 15.5 66.8 15.5 64.9V59.6C15.5 55.7 18.6 52.6 22.5 52.6H46.4V64.9C46.4 66.8 48 68.4 49.9 68.4C51.8 68.4 53.4 66.8 53.4 64.9V52.6H77.4C81.3 52.6 84.5 55.7 84.5 59.6ZM43.6 14.5H56.5V27.4H43.6V14.5Z" fill="white"/>
<path d="M56.5005 75.1L47.3005 85L43.5005 80.9C42.3005 79.7 40.4005 79.6 39.2005 80.7C38.0005 81.9 37.9005 83.8 39.0005 85L45.0005 91.5C45.6005 92.1 46.4005 92.5 47.2005 92.5C48.0005 92.5 48.9005 92.1 49.4005 91.5L61.0005 79.2C62.2005 78 62.1005 76 60.8005 74.9C59.6005 73.8 57.7005 73.8 56.5005 75.1Z" fill="white"/>
<path d="M92.3 82.4L96.6 78.1C97.8 76.9 97.8 75 96.6 73.8C95.4 72.6 93.5 72.6 92.3 73.8L88 78.1L83.7 73.8C82.5 72.6 80.6 72.6 79.4 73.8C78.2 75 78.2 76.9 79.4 78.1L83.7 82.4L79.4 86.7C78.2 87.9 78.2 89.8 79.4 91C80 91.6 80.8 91.9 81.6 91.9C82.4 91.9 83.2 91.6 83.8 91L88.1 86.7L92.4 91C93 91.6 93.8 91.9 94.6 91.9C95.4 91.9 96.2 91.6 96.8 91C98 89.8 98 87.9 96.8 86.7L92.3 82.4Z" fill="white"/>
<path d="M20.7 73.8C19.5 72.6 17.6 72.6 16.4 73.8L12 78.1L7.7 73.8C6.5 72.6 4.6 72.6 3.4 73.8C2.2 75 2.2 76.9 3.4 78.1L7.7 82.4L3.4 86.7C2.2 87.9 2.2 89.8 3.4 91C4 91.7 4.8 92 5.6 92C6.4 92 7.2 91.7 7.8 91.1L12.1 86.8L16.4 91.1C17 91.7 17.8 92 18.6 92C19.4 92 20.2 91.7 20.8 91.1C22 89.9 22 88 20.8 86.8L16.5 82.5L20.8 78.2C21.9 76.9 21.9 75 20.7 73.8Z" fill="white"/>
</g>
<defs>
<clipPath id="clip0_857_16">
<rect width="100" height="125" fill="white"/>
</clipPath>
</defs>
</svg>
