<svg width="17" height="12" viewBox="0 0 17 12" fill="none" xmlns="http://www.w3.org/2000/svg">
<path d="M15.9287 6.97712L11.1016 11.8C10.9714 11.9255 10.7949 11.995 10.6101 11.9934C10.4253 11.9918 10.247 11.9194 10.1135 11.7916C9.98007 11.6639 9.90217 11.4911 9.8966 11.3104C9.89103 11.1298 9.95824 10.9557 10.0838 10.8258L13.7337 7.179H1.34092C1.15402 7.179 0.973186 7.10641 0.838195 6.9772C0.703204 6.84799 0.625116 6.67274 0.621108 6.49001C0.617099 6.30728 0.6875 6.13204 0.816823 6.00283C0.946145 5.87362 1.1238 5.80103 1.31069 5.80103H13.7035L9.89356 2.15424C9.82486 2.09069 9.7695 2.01466 9.73073 1.9306C9.69195 1.84654 9.67053 1.75614 9.66771 1.66465C9.66489 1.57317 9.68073 1.48245 9.7143 1.39777C9.74788 1.3131 9.79852 1.23617 9.86326 1.17148C9.92801 1.10679 10.0056 1.05563 10.0914 1.02099C10.1773 0.986347 10.2697 0.968915 10.3633 0.96971C10.4568 0.970505 10.5497 0.989512 10.6365 1.02562C10.7233 1.06173 10.8022 1.11422 10.8686 1.18002L15.9073 6.0029C16.0422 6.13211 16.1203 6.30732 16.1243 6.49001C16.1283 6.67271 16.0579 6.84792 15.9287 6.97712Z" fill="white"/>
</svg>
